<svg xmlns="http://www.w3.org/2000/svg" xmlns:xlink="http://www.w3.org/1999/xlink" width="1920" zoomAndPan="magnify" viewBox="0 0 1440 374.999991" height="500" preserveAspectRatio="xMidYMid meet" version="1.0"><defs><g/><clipPath id="f6ad489586"><path d="M 24.769531 176.082031 L 179.269531 176.082031 L 179.269531 308.832031 L 24.769531 308.832031 Z M 24.769531 176.082031 " clip-rule="nonzero"/></clipPath></defs><g clip-path="url(#f6ad489586)"><path fill="#ff66c4" d="M 101.929688 341.222656 C 155.976562 341.222656 199.792969 297.410156 199.792969 243.359375 C 199.792969 189.3125 155.976562 145.496094 101.929688 145.496094 C 47.878906 145.496094 4.066406 189.3125 4.066406 243.359375 C 4.066406 297.410156 47.878906 341.222656 101.929688 341.222656 Z M 124.632812 272.328125 L 132.460938 272.328125 L 132.460938 214.394531 L 124.632812 214.394531 L 124.632812 199.125 L 159.472656 199.125 L 159.472656 214.394531 L 152.035156 214.394531 L 152.035156 272.328125 L 159.472656 272.328125 L 159.472656 287.59375 L 124.632812 287.59375 Z M 66.039062 199.125 L 89.730469 199.125 L 121.273438 287.59375 L 99.503906 287.59375 L 93.195312 268.023438 L 61.648438 268.023438 L 55.402344 287.59375 L 33.753906 287.59375 Z M 66.039062 199.125 " fill-opacity="1" fill-rule="nonzero"/></g><path fill="#ff66c4" d="M 77.335938 214.96875 L 77.195312 214.96875 C 77.214844 215.011719 77.238281 215.046875 77.257812 215.085938 C 77.28125 215.054688 77.308594 215.011719 77.335938 214.96875 Z M 77.335938 214.96875 " fill-opacity="1" fill-rule="nonzero"/><path fill="#ff66c4" d="M 77.4375 217.628906 L 65.917969 252.753906 L 88.617188 252.753906 Z M 77.4375 217.628906 " fill-opacity="1" fill-rule="nonzero"/><g fill="#fcfbfc" fill-opacity="1"><g transform="translate(190.786955, 307.492459)"><g><path d="M 162.140625 -132.8125 L 162.140625 0 L 129.78125 0 L 129.78125 -79.640625 L 100.078125 0 L 73.96875 0 L 44.078125 -79.84375 L 44.078125 0 L 11.734375 0 L 11.734375 -132.8125 L 49.953125 -132.8125 L 87.21875 -40.859375 L 124.109375 -132.8125 Z M 162.140625 -132.8125 "/></g></g></g><g fill="#fcfbfc" fill-opacity="1"><g transform="translate(364.445696, 307.492459)"><g><path d="M 44.078125 -132.8125 L 44.078125 0 L 11.734375 0 L 11.734375 -132.8125 Z M 44.078125 -132.8125 "/></g></g></g><g fill="#fcfbfc" fill-opacity="1"><g transform="translate(420.25105, 307.492459)"><g><path d="M 107.265625 -132.8125 L 107.265625 -106.890625 L 72.078125 -106.890625 L 72.078125 0 L 39.734375 0 L 39.734375 -106.890625 L 4.546875 -106.890625 L 4.546875 -132.8125 Z M 107.265625 -132.8125 "/></g></g></g><g fill="#fcfbfc" fill-opacity="1"><g transform="translate(532.050956, 307.492459)"><g><path d="M 94.40625 -23.453125 L 44.84375 -23.453125 L 36.890625 0 L 3.03125 0 L 51.078125 -132.8125 L 88.546875 -132.8125 L 136.59375 0 L 102.34375 0 Z M 86.078125 -48.4375 L 69.625 -97.046875 L 53.34375 -48.4375 Z M 86.078125 -48.4375 "/></g></g></g><g fill="#fcfbfc" fill-opacity="1"><g transform="translate(671.469783, 307.492459)"><g><path d="M 79.453125 0 L 51.84375 -50.140625 L 44.078125 -50.140625 L 44.078125 0 L 11.734375 0 L 11.734375 -132.8125 L 66.03125 -132.8125 C 76.5 -132.8125 85.421875 -130.984375 92.796875 -127.328125 C 100.171875 -123.671875 105.6875 -118.65625 109.34375 -112.28125 C 113.007812 -105.914062 114.84375 -98.820312 114.84375 -91 C 114.84375 -82.164062 112.347656 -74.28125 107.359375 -67.34375 C 102.378906 -60.414062 95.035156 -55.5 85.328125 -52.59375 L 115.96875 0 Z M 44.078125 -73.03125 L 64.140625 -73.03125 C 70.066406 -73.03125 74.507812 -74.476562 77.46875 -77.375 C 80.4375 -80.28125 81.921875 -84.378906 81.921875 -89.671875 C 81.921875 -94.722656 80.4375 -98.695312 77.46875 -101.59375 C 74.507812 -104.488281 70.066406 -105.9375 64.140625 -105.9375 L 44.078125 -105.9375 Z M 44.078125 -73.03125 "/></g></g></g><g fill="#fcfbfc" fill-opacity="1"><g transform="translate(794.80911, 307.492459)"><g><path d="M 92.140625 -68.109375 C 99.828125 -66.460938 106.003906 -62.644531 110.671875 -56.65625 C 115.335938 -50.664062 117.671875 -43.828125 117.671875 -36.140625 C 117.671875 -25.035156 113.789062 -16.234375 106.03125 -9.734375 C 98.28125 -3.242188 87.46875 0 73.59375 0 L 11.734375 0 L 11.734375 -132.8125 L 71.515625 -132.8125 C 85.003906 -132.8125 95.5625 -129.71875 103.1875 -123.53125 C 110.820312 -117.351562 114.640625 -108.96875 114.640625 -98.375 C 114.640625 -90.550781 112.585938 -84.054688 108.484375 -78.890625 C 104.390625 -73.722656 98.941406 -70.128906 92.140625 -68.109375 Z M 44.078125 -79.078125 L 65.265625 -79.078125 C 70.566406 -79.078125 74.632812 -80.242188 77.46875 -82.578125 C 80.3125 -84.910156 81.734375 -88.347656 81.734375 -92.890625 C 81.734375 -97.429688 80.3125 -100.898438 77.46875 -103.296875 C 74.632812 -105.691406 70.566406 -106.890625 65.265625 -106.890625 L 44.078125 -106.890625 Z M 67.921875 -26.109375 C 73.335938 -26.109375 77.523438 -27.335938 80.484375 -29.796875 C 83.453125 -32.253906 84.9375 -35.816406 84.9375 -40.484375 C 84.9375 -45.148438 83.390625 -48.804688 80.296875 -51.453125 C 77.210938 -54.109375 72.960938 -55.4375 67.546875 -55.4375 L 44.078125 -55.4375 L 44.078125 -26.109375 Z M 67.921875 -26.109375 "/></g></g></g><g fill="#fcfbfc" fill-opacity="1"><g transform="translate(919.472557, 307.492459)"><g><path d="M 44.078125 -106.890625 L 44.078125 -80.03125 L 87.40625 -80.03125 L 87.40625 -55.046875 L 44.078125 -55.046875 L 44.078125 -25.921875 L 93.078125 -25.921875 L 93.078125 0 L 11.734375 0 L 11.734375 -132.8125 L 93.078125 -132.8125 L 93.078125 -106.890625 Z M 44.078125 -106.890625 "/></g></g></g><g fill="#fcfbfc" fill-opacity="1"><g transform="translate(1021.813948, 307.492459)"><g><path d="M 44.078125 -132.8125 L 44.078125 0 L 11.734375 0 L 11.734375 -132.8125 Z M 44.078125 -132.8125 "/></g></g></g><g fill="#fcfbfc" fill-opacity="1"><g transform="translate(1077.619344, 307.492459)"><g><path d="M 107.265625 -132.8125 L 107.265625 -106.890625 L 72.078125 -106.890625 L 72.078125 0 L 39.734375 0 L 39.734375 -106.890625 L 4.546875 -106.890625 L 4.546875 -132.8125 Z M 107.265625 -132.8125 "/></g></g></g><g fill="#fcfbfc" fill-opacity="1"><g transform="translate(1189.419292, 307.492459)"><g><path d="M 44.078125 -106.890625 L 44.078125 -80.03125 L 87.40625 -80.03125 L 87.40625 -55.046875 L 44.078125 -55.046875 L 44.078125 -25.921875 L 93.078125 -25.921875 L 93.078125 0 L 11.734375 0 L 11.734375 -132.8125 L 93.078125 -132.8125 L 93.078125 -106.890625 Z M 44.078125 -106.890625 "/></g></g></g><g fill="#fcfbfc" fill-opacity="1"><g transform="translate(1291.760683, 307.492459)"><g><path d="M 79.453125 0 L 51.84375 -50.140625 L 44.078125 -50.140625 L 44.078125 0 L 11.734375 0 L 11.734375 -132.8125 L 66.03125 -132.8125 C 76.5 -132.8125 85.421875 -130.984375 92.796875 -127.328125 C 100.171875 -123.671875 105.6875 -118.65625 109.34375 -112.28125 C 113.007812 -105.914062 114.84375 -98.820312 114.84375 -91 C 114.84375 -82.164062 112.347656 -74.28125 107.359375 -67.34375 C 102.378906 -60.414062 95.035156 -55.5 85.328125 -52.59375 L 115.96875 0 Z M 44.078125 -73.03125 L 64.140625 -73.03125 C 70.066406 -73.03125 74.507812 -74.476562 77.46875 -77.375 C 80.4375 -80.28125 81.921875 -84.378906 81.921875 -89.671875 C 81.921875 -94.722656 80.4375 -98.695312 77.46875 -101.59375 C 74.507812 -104.488281 70.066406 -105.9375 64.140625 -105.9375 L 44.078125 -105.9375 Z M 44.078125 -73.03125 "/></g></g></g><g fill="#fcfbfc" fill-opacity="1"><g transform="translate(201.72538, 132.523485)"><g><path d="M 3.40625 -78.28125 C 8.351562 -80.851562 13.492188 -83.03125 18.828125 -84.8125 C 24.171875 -86.59375 29.507812 -88.171875 34.84375 -89.546875 L 38.25 -90.4375 C 41.3125 -91.03125 44.375 -91.597656 47.4375 -92.140625 C 50.507812 -92.691406 53.625 -93.066406 56.78125 -93.265625 C 57.476562 -93.359375 58.144531 -93.40625 58.78125 -93.40625 C 59.425781 -93.40625 60.09375 -93.40625 60.78125 -93.40625 C 57.914062 -92.71875 55 -92 52.03125 -91.25 C 49.070312 -90.507812 46.160156 -89.796875 43.296875 -89.109375 C 38.253906 -88.023438 33.234375 -86.863281 28.234375 -85.625 C 23.242188 -84.382812 18.28125 -82.925781 13.34375 -81.25 C 11.664062 -80.757812 10.007812 -80.191406 8.375 -79.546875 C 6.75 -78.898438 5.09375 -78.179688 3.40625 -77.390625 C 3.007812 -77.585938 3.007812 -77.882812 3.40625 -78.28125 Z M 86.59375 -17.9375 C 86.394531 -17.050781 85.898438 -16.554688 85.109375 -16.453125 C 79.671875 -15.460938 74.207031 -14.25 68.71875 -12.8125 C 63.238281 -11.382812 57.878906 -9.734375 52.640625 -7.859375 C 50.160156 -6.972656 47.660156 -6.082031 45.140625 -5.1875 C 42.617188 -4.300781 40.125 -3.3125 37.65625 -2.21875 L 37.515625 -2.21875 C 37.410156 -2.125 37.257812 -2.050781 37.0625 -2 C 36.863281 -1.945312 36.664062 -1.875 36.46875 -1.78125 C 35.675781 -1.382812 34.859375 -1.035156 34.015625 -0.734375 C 33.179688 -0.441406 32.367188 -0.0976562 31.578125 0.296875 L 31.4375 0.4375 C 30.84375 0.832031 29.726562 1.328125 28.09375 1.921875 C 26.46875 2.515625 24.9375 3.007812 23.5 3.40625 C 22.0625 3.800781 21.34375 4 21.34375 4 C 21.34375 4 21.171875 4.023438 20.828125 4.078125 C 20.484375 4.128906 20.164062 4.15625 19.875 4.15625 C 18.6875 4.351562 17.5 4.351562 16.3125 4.15625 C 15.125 3.957031 14.234375 3.210938 13.640625 1.921875 C 13.347656 1.328125 13.296875 0.640625 13.484375 -0.140625 C 11.609375 -0.929688 10.148438 -2.289062 9.109375 -4.21875 C 8.078125 -6.144531 7.90625 -8.050781 8.59375 -9.9375 C 8.195312 -12.5 7.875 -15.085938 7.625 -17.703125 C 7.382812 -20.328125 7.164062 -22.925781 6.96875 -25.5 L 5.1875 -43.296875 L 3.40625 -60.203125 C 1.53125 -62.273438 0.738281 -64.691406 1.03125 -67.453125 C 1.332031 -70.222656 2.570312 -72.546875 4.75 -74.421875 C 4.84375 -74.617188 4.9375 -74.816406 5.03125 -75.015625 C 5.132812 -75.210938 5.238281 -75.410156 5.34375 -75.609375 C 6.914062 -76.304688 8.492188 -76.953125 10.078125 -77.546875 C 11.660156 -78.140625 13.242188 -78.679688 14.828125 -79.171875 C 19.765625 -80.847656 24.726562 -82.304688 29.71875 -83.546875 C 34.71875 -84.785156 39.738281 -85.898438 44.78125 -86.890625 C 48.726562 -87.773438 52.628906 -88.734375 56.484375 -89.765625 C 60.335938 -90.804688 64.191406 -91.820312 68.046875 -92.8125 C 68.546875 -92.71875 69.066406 -92.644531 69.609375 -92.59375 C 70.148438 -92.539062 70.617188 -92.414062 71.015625 -92.21875 L 73.390625 -91.328125 C 73.785156 -91.035156 74.179688 -90.710938 74.578125 -90.359375 C 74.972656 -90.015625 75.367188 -89.695312 75.765625 -89.40625 C 76.253906 -87.820312 76.597656 -86.265625 76.796875 -84.734375 C 76.992188 -83.203125 76.945312 -81.695312 76.65625 -80.21875 L 69.234375 -77.984375 C 67.660156 -77.492188 66.003906 -77 64.265625 -76.5 C 62.535156 -76.007812 60.832031 -75.515625 59.15625 -75.015625 C 58.757812 -74.816406 58.460938 -74.71875 58.265625 -74.71875 C 56.390625 -74.226562 54.191406 -73.613281 51.671875 -72.875 C 49.148438 -72.132812 46.628906 -71.390625 44.109375 -70.640625 C 41.585938 -69.898438 39.4375 -69.234375 37.65625 -68.640625 C 35.875 -68.046875 34.785156 -67.648438 34.390625 -67.453125 C 32.023438 -66.671875 29.65625 -65.832031 27.28125 -64.9375 C 24.90625 -64.050781 22.582031 -63.113281 20.3125 -62.125 L 20.015625 -61.828125 C 20.117188 -61.328125 20.242188 -60.507812 20.390625 -59.375 C 20.535156 -58.238281 20.679688 -57.175781 20.828125 -56.1875 C 20.972656 -55.195312 21.046875 -54.554688 21.046875 -54.265625 C 25.203125 -56.046875 29.332031 -57.800781 33.4375 -59.53125 C 37.539062 -61.257812 41.71875 -62.914062 45.96875 -64.5 C 48.332031 -65.09375 50.722656 -65.707031 53.140625 -66.34375 C 55.566406 -66.988281 57.96875 -67.65625 60.34375 -68.34375 L 62.265625 -68.796875 C 63.160156 -68.992188 64.023438 -69.113281 64.859375 -69.15625 C 65.703125 -69.207031 66.566406 -69.285156 67.453125 -69.390625 C 69.335938 -69.484375 71.117188 -69.359375 72.796875 -69.015625 C 74.472656 -68.671875 75.804688 -67.609375 76.796875 -65.828125 C 76.992188 -65.628906 77.117188 -65.429688 77.171875 -65.234375 C 77.222656 -65.035156 77.296875 -64.835938 77.390625 -64.640625 C 77.585938 -64.347656 77.734375 -64.050781 77.828125 -63.75 C 77.929688 -63.457031 78.035156 -63.160156 78.140625 -62.859375 C 78.234375 -62.765625 78.332031 -62.71875 78.4375 -62.71875 C 79.820312 -62.019531 80.660156 -60.785156 80.953125 -59.015625 C 81.242188 -57.628906 81.019531 -56.21875 80.28125 -54.78125 C 79.539062 -53.351562 78.476562 -52.289062 77.09375 -51.59375 C 75.507812 -50.90625 73.898438 -50.484375 72.265625 -50.328125 C 70.640625 -50.179688 68.988281 -49.910156 67.3125 -49.515625 C 65.53125 -49.222656 63.722656 -48.898438 61.890625 -48.546875 C 60.066406 -48.203125 58.265625 -47.785156 56.484375 -47.296875 C 52.929688 -46.304688 49.398438 -45.242188 45.890625 -44.109375 C 42.378906 -42.972656 38.894531 -41.664062 35.4375 -40.1875 C 33.257812 -39.289062 31.15625 -38.347656 29.125 -37.359375 C 27.101562 -36.367188 25.054688 -35.332031 22.984375 -34.25 L 23.875 -24.609375 C 23.875 -24.515625 23.875 -24.441406 23.875 -24.390625 C 23.875 -24.335938 23.875 -24.210938 23.875 -24.015625 L 24.3125 -24.3125 C 26 -25.101562 27.65625 -25.816406 29.28125 -26.453125 C 30.914062 -27.097656 32.519531 -27.769531 34.09375 -28.46875 L 46.703125 -33.359375 C 47.785156 -33.847656 48.894531 -34.289062 50.03125 -34.6875 C 51.175781 -35.082031 52.289062 -35.476562 53.375 -35.875 C 55.15625 -36.570312 56.929688 -37.238281 58.703125 -37.875 C 60.484375 -38.519531 62.265625 -39.140625 64.046875 -39.734375 L 69.828125 -41.515625 C 70.617188 -41.710938 71.410156 -41.984375 72.203125 -42.328125 C 72.992188 -42.671875 73.785156 -42.941406 74.578125 -43.140625 C 77.441406 -43.734375 79.785156 -43.484375 81.609375 -42.390625 C 83.441406 -41.304688 84.898438 -39.726562 85.984375 -37.65625 C 87.078125 -35.582031 87.894531 -33.304688 88.4375 -30.828125 C 88.976562 -28.359375 89.300781 -26.085938 89.40625 -24.015625 C 89.5 -22.734375 89.273438 -21.570312 88.734375 -20.53125 C 88.191406 -19.5 87.476562 -18.632812 86.59375 -17.9375 Z M 50.703125 -49.375 C 48.429688 -48.675781 46.132812 -47.984375 43.8125 -47.296875 C 41.488281 -46.609375 39.191406 -45.867188 36.921875 -45.078125 C 35.429688 -44.679688 33.96875 -44.257812 32.53125 -43.8125 C 31.101562 -43.363281 29.695312 -42.941406 28.3125 -42.546875 C 28.019531 -40.867188 27.234375 -39.488281 25.953125 -38.40625 C 29.609375 -40.28125 33.335938 -41.957031 37.140625 -43.4375 C 40.941406 -44.925781 44.671875 -46.410156 48.328125 -47.890625 C 49.117188 -48.285156 49.960938 -48.628906 50.859375 -48.921875 Z M 17.9375 1.921875 C 19.03125 2.023438 20.265625 2.050781 21.640625 2 C 23.023438 1.945312 23.816406 1.875 24.015625 1.78125 C 24.210938 1.78125 24.363281 1.726562 24.46875 1.625 C 25.0625 1.332031 25.648438 1.035156 26.234375 0.734375 C 26.828125 0.441406 27.375 0.148438 27.875 -0.140625 C 29.0625 -0.734375 30.222656 -1.328125 31.359375 -1.921875 C 32.492188 -2.515625 33.601562 -3.109375 34.6875 -3.703125 L 34.6875 -4 C 33.40625 -3.507812 32.070312 -3.015625 30.6875 -2.515625 C 29.300781 -2.023438 27.921875 -1.53125 26.546875 -1.03125 C 25.160156 -0.539062 23.75 -0.0234375 22.3125 0.515625 C 20.882812 1.054688 19.425781 1.523438 17.9375 1.921875 Z M 17.9375 1.921875 "/></g></g></g><g fill="#fcfbfc" fill-opacity="1"><g transform="translate(290.683234, 132.523485)"><g><path d="M 71.46875 -56.1875 C 73.9375 -52.4375 75.09375 -48.039062 74.9375 -43 C 74.789062 -37.957031 74.175781 -33.359375 73.09375 -29.203125 C 72.101562 -25.453125 70.671875 -21.75 68.796875 -18.09375 C 66.921875 -14.4375 64.398438 -11.367188 61.234375 -8.890625 C 56.191406 -4.835938 50.285156 -2.144531 43.515625 -0.8125 C 36.742188 0.519531 30.242188 -0.046875 24.015625 -2.515625 C 17.984375 -4.992188 12.71875 -8.773438 8.21875 -13.859375 C 3.726562 -18.953125 0.789062 -24.757812 -0.59375 -31.28125 C -0.882812 -32.863281 -1.128906 -34.46875 -1.328125 -36.09375 C -1.523438 -37.726562 -1.625 -39.335938 -1.625 -40.921875 C -1.53125 -46.359375 -0.84375 -51.671875 0.4375 -56.859375 C 1.726562 -62.046875 4.050781 -66.765625 7.40625 -71.015625 C 9.6875 -73.984375 12.332031 -77 15.34375 -80.0625 C 18.363281 -83.125 21.40625 -85.742188 24.46875 -87.921875 C 27.332031 -89.992188 30.296875 -91.921875 33.359375 -93.703125 C 34.835938 -94.585938 36.46875 -95.273438 38.25 -95.765625 C 40.03125 -96.265625 41.8125 -96.414062 43.59375 -96.21875 C 45.175781 -96.125 46.410156 -95.582031 47.296875 -94.59375 C 48.179688 -93.601562 48.625 -92.46875 48.625 -91.1875 C 49.125 -90.289062 49.375 -89.375 49.375 -88.4375 C 49.375 -87.5 49.320312 -86.488281 49.21875 -85.40625 C 49.125 -84.8125 49.078125 -83.570312 49.078125 -81.6875 C 49.078125 -79.8125 49.078125 -77.6875 49.078125 -75.3125 C 49.078125 -72.945312 49.097656 -70.703125 49.140625 -68.578125 C 49.191406 -66.453125 49.21875 -64.796875 49.21875 -63.609375 L 49.671875 -49.515625 C 49.671875 -48.234375 49.691406 -46.972656 49.734375 -45.734375 C 49.785156 -44.503906 49.863281 -43.296875 49.96875 -42.109375 C 49.96875 -41.117188 49.988281 -40.101562 50.03125 -39.0625 C 50.082031 -38.03125 50.007812 -37.019531 49.8125 -36.03125 C 49.71875 -35.632812 49.445312 -35.335938 49 -35.140625 C 48.550781 -34.941406 48.128906 -34.941406 47.734375 -35.140625 C 47.242188 -35.535156 46.953125 -35.78125 46.859375 -35.875 C 46.660156 -35.78125 46.460938 -35.753906 46.265625 -35.796875 C 46.066406 -35.847656 45.867188 -35.875 45.671875 -35.875 C 44.679688 -36.175781 43.863281 -36.671875 43.21875 -37.359375 C 42.570312 -38.054688 42.003906 -38.847656 41.515625 -39.734375 C 41.210938 -40.222656 40.988281 -40.710938 40.84375 -41.203125 C 40.695312 -41.703125 40.523438 -42.148438 40.328125 -42.546875 L 39.890625 -42.546875 L 39.890625 -42.109375 C 40.378906 -40.429688 41.164062 -38.675781 42.25 -36.84375 C 43.34375 -35.007812 44.976562 -34.289062 47.15625 -34.6875 C 48.238281 -34.882812 49 -34.640625 49.4375 -33.953125 C 49.882812 -33.265625 49.984375 -32.523438 49.734375 -31.734375 C 49.492188 -30.941406 48.828125 -30.492188 47.734375 -30.390625 C 45.859375 -30.191406 44.003906 -30.632812 42.171875 -31.71875 C 40.347656 -32.8125 39.039062 -34.25 38.25 -36.03125 C 37.257812 -38.300781 36.691406 -40.644531 36.546875 -43.0625 C 36.398438 -45.488281 36.273438 -47.890625 36.171875 -50.265625 L 35.28125 -78.875 C 34.988281 -78.675781 34.691406 -78.453125 34.390625 -78.203125 C 34.097656 -77.960938 33.753906 -77.742188 33.359375 -77.546875 C 28.316406 -73.691406 24.363281 -69.242188 21.5 -64.203125 C 18.632812 -59.160156 16.609375 -53.476562 15.421875 -47.15625 C 15.316406 -46.5625 15.238281 -46.1875 15.1875 -46.03125 C 15.144531 -45.882812 15.125 -45.566406 15.125 -45.078125 C 15.019531 -44.679688 14.96875 -44.285156 14.96875 -43.890625 C 14.96875 -43.492188 14.96875 -43.097656 14.96875 -42.703125 C 14.875 -40.921875 14.972656 -39.1875 15.265625 -37.5 C 15.566406 -35.820312 15.960938 -34.144531 16.453125 -32.46875 C 17.835938 -28.125 19.914062 -24.171875 22.6875 -20.609375 C 25.457031 -17.046875 29.257812 -15.117188 34.09375 -14.828125 C 34.394531 -14.828125 34.71875 -14.800781 35.0625 -14.75 C 35.40625 -14.695312 35.726562 -14.671875 36.03125 -14.671875 C 41.757812 -14.867188 46.648438 -16.75 50.703125 -20.3125 C 52.390625 -21.894531 53.675781 -23.523438 54.5625 -25.203125 C 55.945312 -27.578125 56.835938 -30.125 57.234375 -32.84375 C 57.628906 -35.5625 57.773438 -38.203125 57.671875 -40.765625 C 57.578125 -41.953125 57.476562 -43.113281 57.375 -44.25 C 57.28125 -45.394531 56.984375 -46.457031 56.484375 -47.4375 C 55.492188 -49.613281 55.222656 -51.8125 55.671875 -54.03125 C 56.117188 -56.257812 57.429688 -58.019531 59.609375 -59.3125 C 61.679688 -60.59375 63.851562 -60.882812 66.125 -60.1875 C 68.394531 -59.5 70.175781 -58.164062 71.46875 -56.1875 Z M 38.25 -80.953125 C 37.5625 -80.359375 36.769531 -79.816406 35.875 -79.328125 C 36.070312 -76.847656 36.316406 -74.375 36.609375 -71.90625 C 36.910156 -69.4375 37.160156 -66.96875 37.359375 -64.5 L 38.109375 -64.5 C 38.003906 -67.257812 37.953125 -70 37.953125 -72.71875 C 37.953125 -75.4375 38.050781 -78.179688 38.25 -80.953125 Z M 56.34375 -47.734375 C 56.34375 -47.835938 56.316406 -47.890625 56.265625 -47.890625 C 56.210938 -47.890625 56.1875 -47.9375 56.1875 -48.03125 C 56.1875 -48.03125 56.210938 -48.003906 56.265625 -47.953125 C 56.316406 -47.910156 56.34375 -47.835938 56.34375 -47.734375 Z M 56.484375 -47.4375 C 56.390625 -47.539062 56.34375 -47.640625 56.34375 -47.734375 C 56.34375 -47.640625 56.363281 -47.59375 56.40625 -47.59375 C 56.457031 -47.59375 56.484375 -47.539062 56.484375 -47.4375 Z M 56.484375 -47.4375 "/></g></g></g><g fill="#fcfbfc" fill-opacity="1"><g transform="translate(367.780023, 132.523485)"><g><path d="M 56.046875 -63.609375 C 56.835938 -59.054688 57.332031 -54.457031 57.53125 -49.8125 C 57.726562 -45.164062 57.578125 -40.519531 57.078125 -35.875 C 56.679688 -31.820312 56.039062 -27.644531 55.15625 -23.34375 C 54.269531 -19.050781 52.585938 -15.175781 50.109375 -11.71875 C 49.316406 -10.625 48.476562 -9.554688 47.59375 -8.515625 C 46.707031 -7.484375 45.71875 -6.523438 44.625 -5.640625 C 43.238281 -4.253906 41.679688 -3.085938 39.953125 -2.140625 C 38.222656 -1.203125 36.320312 -0.585938 34.25 -0.296875 C 32.664062 -0.191406 31.035156 -0.191406 29.359375 -0.296875 C 26.890625 0.0976562 24.367188 -0.0976562 21.796875 -0.890625 C 19.222656 -1.679688 16.945312 -2.867188 14.96875 -4.453125 C 11.507812 -7.410156 8.941406 -10.988281 7.265625 -15.1875 C 5.585938 -19.394531 4.351562 -23.671875 3.5625 -28.015625 C 2.070312 -37.503906 2.066406 -46.992188 3.546875 -56.484375 C 5.035156 -65.972656 8.253906 -74.867188 13.203125 -83.171875 C 13.203125 -83.171875 13.296875 -83.269531 13.484375 -83.46875 C 14.972656 -87.425781 16.953125 -90.988281 19.421875 -94.15625 C 19.523438 -94.34375 19.625 -94.410156 19.71875 -94.359375 C 19.820312 -94.316406 19.820312 -94.195312 19.71875 -94 C 19.320312 -93.3125 18.898438 -92.59375 18.453125 -91.84375 C 18.015625 -91.101562 17.644531 -90.335938 17.34375 -89.546875 C 16.945312 -88.753906 16.597656 -87.9375 16.296875 -87.09375 C 16.003906 -86.257812 15.710938 -85.445312 15.421875 -84.65625 C 15.617188 -84.757812 15.835938 -84.785156 16.078125 -84.734375 C 16.328125 -84.679688 16.503906 -84.65625 16.609375 -84.65625 C 17.890625 -87.425781 19.421875 -89.847656 21.203125 -91.921875 C 22.984375 -93.992188 25.054688 -95.28125 27.421875 -95.78125 C 28.410156 -96.175781 29.375 -96.492188 30.3125 -96.734375 C 31.257812 -96.984375 32.226562 -97.0625 33.21875 -96.96875 C 34.300781 -97.164062 35.410156 -97.238281 36.546875 -97.1875 C 37.679688 -97.132812 38.695312 -96.863281 39.59375 -96.375 C 40.570312 -95.78125 41.429688 -94.9375 42.171875 -93.84375 C 42.921875 -92.757812 43.539062 -91.722656 44.03125 -90.734375 C 44.625 -90.929688 45.242188 -90.957031 45.890625 -90.8125 C 46.535156 -90.664062 47.050781 -90.242188 47.4375 -89.546875 C 48.53125 -87.578125 49.570312 -85.550781 50.5625 -83.46875 C 51.550781 -81.394531 52.390625 -79.269531 53.078125 -77.09375 C 53.765625 -74.925781 54.332031 -72.703125 54.78125 -70.421875 C 55.226562 -68.148438 55.648438 -65.878906 56.046875 -63.609375 Z M 37.515625 -20.453125 C 38.796875 -23.921875 39.679688 -27.484375 40.171875 -31.140625 C 40.671875 -34.796875 40.921875 -38.453125 40.921875 -42.109375 C 40.617188 -45.859375 40.320312 -49.585938 40.03125 -53.296875 C 39.738281 -57.003906 39.296875 -60.6875 38.703125 -64.34375 C 38.503906 -65.4375 38.304688 -66.550781 38.109375 -67.6875 C 37.910156 -68.820312 37.710938 -69.882812 37.515625 -70.875 C 37.117188 -72.257812 36.671875 -73.59375 36.171875 -74.875 C 35.679688 -76.15625 35.1875 -77.441406 34.6875 -78.734375 C 34.488281 -79.222656 34.265625 -79.765625 34.015625 -80.359375 C 33.773438 -80.953125 33.507812 -81.492188 33.21875 -81.984375 C 33.019531 -82.179688 32.820312 -82.28125 32.625 -82.28125 L 31.875 -82.28125 C 31.476562 -81.488281 31.109375 -80.648438 30.765625 -79.765625 C 30.421875 -78.878906 30.148438 -78.039062 29.953125 -77.25 C 29.160156 -74.582031 28.441406 -71.890625 27.796875 -69.171875 C 27.160156 -66.453125 26.644531 -63.65625 26.25 -60.78125 C 25.550781 -55.351562 25.25 -49.820312 25.34375 -44.1875 C 25.445312 -38.550781 25.945312 -32.960938 26.84375 -27.421875 C 27.132812 -25.742188 26.9375 -24.265625 26.25 -22.984375 C 24.164062 -32.671875 23.347656 -42.675781 23.796875 -53 C 24.242188 -63.332031 26.59375 -72.945312 30.84375 -81.84375 C 30.445312 -81.539062 30.070312 -81.117188 29.71875 -80.578125 C 29.375 -80.035156 29.054688 -79.519531 28.765625 -79.03125 C 27.378906 -76.257812 26.191406 -73.390625 25.203125 -70.421875 C 24.210938 -67.460938 23.421875 -64.445312 22.828125 -61.375 C 22.628906 -60.976562 22.53125 -60.78125 22.53125 -60.78125 C 22.238281 -59.101562 22.015625 -57.398438 21.859375 -55.671875 C 21.710938 -53.941406 21.539062 -52.238281 21.34375 -50.5625 C 21.144531 -45.519531 21.316406 -40.5 21.859375 -35.5 C 22.410156 -30.507812 23.226562 -25.59375 24.3125 -20.75 C 23.820312 -20.363281 23.28125 -20.117188 22.6875 -20.015625 C 20.90625 -19.617188 19.175781 -19.914062 17.5 -20.90625 C 18.289062 -19.320312 19.375 -17.6875 20.75 -16 C 22.132812 -14.320312 23.738281 -13.0625 25.5625 -12.21875 C 27.394531 -11.382812 29.351562 -11.265625 31.4375 -11.859375 C 33.113281 -12.453125 34.445312 -13.640625 35.4375 -15.421875 C 35.925781 -16.210938 36.34375 -17.023438 36.6875 -17.859375 C 37.039062 -18.703125 37.316406 -19.566406 37.515625 -20.453125 Z M 37.515625 -20.453125 "/></g></g></g><g fill="#fcfbfc" fill-opacity="1"><g transform="translate(430.050529, 132.523485)"><g><path d="M 90.734375 -15.125 C 90.929688 -13.050781 90.90625 -10.972656 90.65625 -8.890625 C 90.414062 -6.816406 89.75 -4.84375 88.65625 -2.96875 C 87.570312 -1.082031 85.867188 0.273438 83.546875 1.109375 C 81.222656 1.953125 79.125 1.4375 77.25 -0.4375 C 75.5625 -0.832031 74.125 -1.695312 72.9375 -3.03125 C 71.757812 -4.375 71.171875 -5.929688 71.171875 -7.703125 C 70.867188 -20.359375 69.140625 -32.960938 65.984375 -45.515625 C 65.285156 -48.679688 64.585938 -51.820312 63.890625 -54.9375 C 63.203125 -58.050781 62.515625 -61.140625 61.828125 -64.203125 C 60.046875 -59.054688 58.3125 -53.539062 56.625 -47.65625 C 54.945312 -41.78125 53.566406 -36.769531 52.484375 -32.625 C 51.492188 -28.570312 50.53125 -24.414062 49.59375 -20.15625 C 48.65625 -15.90625 47.890625 -12.203125 47.296875 -9.046875 C 47.203125 -8.742188 47.078125 -8.617188 46.921875 -8.671875 C 46.773438 -8.722656 46.703125 -8.796875 46.703125 -8.890625 C 46.609375 -8.203125 46.460938 -7.507812 46.265625 -6.8125 C 46.066406 -6.125 45.867188 -5.382812 45.671875 -4.59375 C 45.273438 -3.601562 44.800781 -2.710938 44.25 -1.921875 C 43.707031 -1.128906 42.84375 -0.585938 41.65625 -0.296875 C 40.769531 -0.0976562 40.128906 -0.144531 39.734375 -0.4375 C 38.847656 -0.4375 38.15625 -0.632812 37.65625 -1.03125 C 37.0625 -0.632812 36.617188 -0.785156 36.328125 -1.484375 C 35.628906 -2.566406 35.109375 -3.648438 34.765625 -4.734375 C 34.421875 -5.828125 34.097656 -6.96875 33.796875 -8.15625 L 27.421875 -30.84375 C 26.734375 -33.3125 26.066406 -35.78125 25.421875 -38.25 C 24.785156 -40.71875 24.171875 -43.191406 23.578125 -45.671875 C 23.378906 -46.265625 23.179688 -46.851562 22.984375 -47.4375 C 22.785156 -48.03125 22.585938 -48.675781 22.390625 -49.375 C 22.679688 -43.144531 22.953125 -36.816406 23.203125 -30.390625 C 23.453125 -23.960938 23.625 -17.640625 23.71875 -11.421875 C 23.820312 -9.242188 23.75 -6.992188 23.5 -4.671875 C 23.25 -2.347656 21.941406 -0.644531 19.578125 0.4375 C 18.484375 0.9375 17.640625 0.835938 17.046875 0.140625 C 16.847656 -0.046875 16.703125 -0.238281 16.609375 -0.4375 C 14.523438 0.25 12.796875 -0.0976562 11.421875 -1.484375 C 10.128906 -2.867188 9.285156 -4.546875 8.890625 -6.515625 C 8.492188 -8.492188 8.195312 -10.375 8 -12.15625 C 7.40625 -16.507812 6.960938 -20.785156 6.671875 -24.984375 C 6.378906 -29.179688 6.179688 -33.40625 6.078125 -37.65625 C 5.785156 -46.457031 5.640625 -55.253906 5.640625 -64.046875 C 5.535156 -68.296875 5.457031 -72.59375 5.40625 -76.9375 C 5.363281 -81.289062 5.738281 -85.59375 6.53125 -89.84375 C 6.625 -90.238281 6.914062 -90.4375 7.40625 -90.4375 C 7.90625 -90.4375 8.203125 -90.238281 8.296875 -89.84375 C 8.796875 -86.882812 9.09375 -83.75 9.1875 -80.4375 C 9.289062 -77.125 9.390625 -73.882812 9.484375 -70.71875 C 9.679688 -70.71875 9.828125 -70.171875 9.921875 -69.078125 C 10.023438 -67.992188 10.128906 -67.453125 10.234375 -67.453125 L 10.234375 -70.875 C 10.234375 -72.65625 10.207031 -74.410156 10.15625 -76.140625 C 10.101562 -77.867188 10.078125 -79.617188 10.078125 -81.390625 C 9.984375 -82.878906 9.957031 -84.410156 10 -85.984375 C 10.050781 -87.566406 10.425781 -89.050781 11.125 -90.4375 C 11.125 -92.125 11.960938 -93.457031 13.640625 -94.4375 C 16.015625 -95.925781 18.484375 -96.273438 21.046875 -95.484375 C 24.015625 -94.890625 26.039062 -93.160156 27.125 -90.296875 C 28.019531 -89.203125 28.566406 -87.867188 28.765625 -86.296875 C 28.960938 -84.515625 29.207031 -82.707031 29.5 -80.875 C 29.800781 -79.050781 30.097656 -77.195312 30.390625 -75.3125 C 31.679688 -67.707031 33.113281 -59.753906 34.6875 -51.453125 C 36.269531 -43.148438 37.90625 -35.238281 39.59375 -27.71875 C 40.570312 -31.875 41.503906 -36.023438 42.390625 -40.171875 C 43.285156 -44.328125 44.226562 -48.484375 45.21875 -52.640625 C 46.601562 -59.054688 48.035156 -65.453125 49.515625 -71.828125 C 51.003906 -78.203125 52.191406 -84.601562 53.078125 -91.03125 C 53.273438 -91.820312 53.71875 -92.539062 54.40625 -93.1875 C 55.101562 -93.832031 55.847656 -94.203125 56.640625 -94.296875 C 59.109375 -94.984375 61.28125 -94.785156 63.15625 -93.703125 C 64.25 -94.492188 65.484375 -94.890625 66.859375 -94.890625 C 68.242188 -94.890625 69.382812 -94.394531 70.28125 -93.40625 C 72.550781 -91.132812 74.378906 -88.5625 75.765625 -85.6875 C 77.148438 -82.820312 78.1875 -79.859375 78.875 -76.796875 C 79.664062 -73.441406 80.378906 -70.109375 81.015625 -66.796875 C 81.660156 -63.484375 82.28125 -60.144531 82.875 -56.78125 C 83.070312 -55.5 83.296875 -54.210938 83.546875 -52.921875 C 83.796875 -51.640625 83.96875 -50.359375 84.0625 -49.078125 C 84.363281 -47.984375 84.632812 -46.894531 84.875 -45.8125 C 85.125 -44.726562 85.347656 -43.640625 85.546875 -42.546875 C 86.046875 -40.078125 86.515625 -37.65625 86.953125 -35.28125 C 87.398438 -32.914062 87.867188 -30.492188 88.359375 -28.015625 C 88.859375 -25.847656 89.328125 -23.703125 89.765625 -21.578125 C 90.210938 -19.453125 90.535156 -17.300781 90.734375 -15.125 Z M 29.203125 -55.453125 C 29.503906 -54.753906 29.753906 -54.132812 29.953125 -53.59375 C 30.148438 -53.050781 30.445312 -52.535156 30.84375 -52.046875 C 30.144531 -55.796875 29.347656 -60.117188 28.453125 -65.015625 C 27.566406 -69.910156 26.78125 -74.234375 26.09375 -77.984375 C 26 -79.078125 25.851562 -80.191406 25.65625 -81.328125 C 25.457031 -82.460938 25.207031 -83.625 24.90625 -84.8125 C 24.3125 -84.414062 23.617188 -84.117188 22.828125 -83.921875 C 22.828125 -83.722656 22.78125 -83.523438 22.6875 -83.328125 C 23.769531 -78.773438 24.828125 -74.273438 25.859375 -69.828125 C 26.898438 -65.378906 27.914062 -60.832031 28.90625 -56.1875 C 29.101562 -55.988281 29.203125 -55.742188 29.203125 -55.453125 Z M 51.75 -32.921875 C 53.132812 -38.546875 54.613281 -44.175781 56.1875 -49.8125 C 57.769531 -55.445312 59.5 -61.035156 61.375 -66.578125 C 61.28125 -67.066406 61.179688 -67.554688 61.078125 -68.046875 C 60.984375 -68.546875 60.835938 -69.039062 60.640625 -69.53125 C 59.054688 -64.6875 57.570312 -59.769531 56.1875 -54.78125 C 54.800781 -49.789062 53.519531 -44.773438 52.34375 -39.734375 C 52.238281 -38.648438 52.0625 -37.535156 51.8125 -36.390625 C 51.570312 -35.253906 51.351562 -34.144531 51.15625 -33.0625 C 51.25 -32.96875 51.394531 -32.921875 51.59375 -32.921875 Z M 51.75 -32.921875 "/></g></g></g><g fill="#fcfbfc" fill-opacity="1"><g transform="translate(519.008383, 132.523485)"><g><path d="M 84.65625 -87.328125 C 84.457031 -86.734375 84.257812 -86.238281 84.0625 -85.84375 C 83.96875 -84.5625 83.722656 -83.273438 83.328125 -81.984375 C 82.929688 -80.703125 82.140625 -79.664062 80.953125 -78.875 C 80.460938 -78.476562 79.722656 -78.179688 78.734375 -77.984375 C 78.335938 -77.585938 77.988281 -77.390625 77.6875 -77.390625 C 73.9375 -76.703125 70.179688 -76.007812 66.421875 -75.3125 C 62.660156 -74.625 58.90625 -74.035156 55.15625 -73.546875 C 55.15625 -70.273438 55.128906 -67.007812 55.078125 -63.75 C 55.023438 -60.488281 55 -57.226562 55 -53.96875 C 55 -49.425781 55.023438 -44.90625 55.078125 -40.40625 C 55.128906 -35.90625 55.15625 -31.382812 55.15625 -26.84375 C 55.25 -24.269531 55.34375 -21.671875 55.4375 -19.046875 C 55.539062 -16.429688 55.644531 -13.835938 55.75 -11.265625 C 55.644531 -9.484375 55.367188 -7.773438 54.921875 -6.140625 C 54.484375 -4.515625 53.570312 -3.160156 52.1875 -2.078125 L 52.1875 -2.375 C 52.289062 -3.457031 52.34375 -4.515625 52.34375 -5.546875 C 52.34375 -6.585938 52.390625 -7.601562 52.484375 -8.59375 L 52.484375 -14.234375 C 52.191406 -12.953125 51.945312 -11.367188 51.75 -9.484375 C 51.550781 -7.609375 51.203125 -5.929688 50.703125 -4.453125 C 50.210938 -2.867188 49.175781 -1.679688 47.59375 -0.890625 C 46.007812 -0.0976562 44.425781 0.0976562 42.84375 -0.296875 C 39.78125 -1.285156 37.753906 -3.238281 36.765625 -6.15625 C 35.773438 -9.070312 35.179688 -11.960938 34.984375 -14.828125 C 34.785156 -18.578125 34.710938 -22.378906 34.765625 -26.234375 C 34.816406 -30.097656 34.890625 -33.90625 34.984375 -37.65625 C 35.179688 -41.414062 35.40625 -45.222656 35.65625 -49.078125 C 35.90625 -52.929688 36.078125 -56.785156 36.171875 -60.640625 L 36.46875 -67.171875 L 36.46875 -71.90625 C 35.476562 -71.90625 34.515625 -71.90625 33.578125 -71.90625 C 32.640625 -71.90625 31.675781 -71.90625 30.6875 -71.90625 C 26.632812 -71.90625 22.679688 -72.054688 18.828125 -72.359375 C 17.242188 -72.554688 15.6875 -72.828125 14.15625 -73.171875 C 12.625 -73.515625 11.164062 -74.082031 9.78125 -74.875 C 8.789062 -75.5625 7.875 -76.398438 7.03125 -77.390625 C 6.195312 -78.378906 5.535156 -79.46875 5.046875 -80.65625 C 3.554688 -81.445312 2.441406 -82.65625 1.703125 -84.28125 C 0.960938 -85.914062 0.789062 -87.625 1.1875 -89.40625 C 1.675781 -90.882812 2.585938 -92.21875 3.921875 -93.40625 C 5.265625 -94.59375 6.722656 -95.085938 8.296875 -94.890625 C 12.347656 -94.492188 16.398438 -94.171875 20.453125 -93.921875 C 24.515625 -93.679688 28.570312 -93.5625 32.625 -93.5625 C 32.625 -93.65625 32.644531 -93.726562 32.6875 -93.78125 C 32.738281 -93.832031 32.765625 -93.90625 32.765625 -94 C 24.753906 -94.488281 16.75 -95.378906 8.75 -96.671875 C 8.550781 -96.671875 8.472656 -96.816406 8.515625 -97.109375 C 8.566406 -97.410156 8.691406 -97.507812 8.890625 -97.40625 C 19.273438 -96.8125 29.65625 -96.613281 40.03125 -96.8125 C 50.40625 -97.007812 60.734375 -97.554688 71.015625 -98.453125 C 71.804688 -98.648438 72.597656 -98.769531 73.390625 -98.8125 C 74.179688 -98.863281 74.921875 -98.941406 75.609375 -99.046875 C 76.003906 -99.046875 76.425781 -99.066406 76.875 -99.109375 C 77.320312 -99.160156 77.742188 -99.140625 78.140625 -99.046875 C 79.222656 -99.242188 80.332031 -99.390625 81.46875 -99.484375 C 82.601562 -99.585938 83.71875 -99.6875 84.8125 -99.78125 C 85.5 -99.882812 85.914062 -99.515625 86.0625 -98.671875 C 86.21875 -97.828125 85.898438 -97.304688 85.109375 -97.109375 C 84.609375 -97.109375 84.257812 -97.0625 84.0625 -96.96875 C 84.457031 -96.769531 84.753906 -96.570312 84.953125 -96.375 C 86.640625 -95.382812 87.457031 -93.828125 87.40625 -91.703125 C 87.351562 -89.578125 86.4375 -88.117188 84.65625 -87.328125 Z M 18.828125 -75.90625 C 21.398438 -75.707031 24.019531 -75.707031 26.6875 -75.90625 C 23.71875 -76.207031 20.75 -76.628906 17.78125 -77.171875 C 14.820312 -77.710938 11.910156 -78.429688 9.046875 -79.328125 C 10.234375 -78.234375 11.710938 -77.414062 13.484375 -76.875 C 15.265625 -76.332031 17.046875 -76.007812 18.828125 -75.90625 Z M 18.828125 -75.90625 "/></g></g></g><g fill="#fcfbfc" fill-opacity="1"><g transform="translate(605.000981, 132.523485)"><g><path d="M 54.265625 -4.453125 C 53.671875 -4.648438 53.003906 -5.6875 52.265625 -7.5625 C 51.523438 -9.4375 50.734375 -11.757812 49.890625 -14.53125 C 49.046875 -17.300781 48.253906 -20.164062 47.515625 -23.125 C 46.773438 -26.09375 46.109375 -28.757812 45.515625 -31.125 C 44.921875 -33.5 44.523438 -35.234375 44.328125 -36.328125 L 32.765625 -36.171875 C 31.679688 -31.722656 30.742188 -27.300781 29.953125 -22.90625 C 29.160156 -18.507812 28.566406 -14.035156 28.171875 -9.484375 C 28.171875 -8.597656 27.75 -8.15625 26.90625 -8.15625 C 26.070312 -8.15625 25.703125 -8.597656 25.796875 -9.484375 C 26.191406 -13.929688 26.757812 -18.40625 27.5 -22.90625 C 28.238281 -27.40625 29.300781 -31.828125 30.6875 -36.171875 L 29.359375 -36.171875 C 28.859375 -34.398438 28.359375 -32.253906 27.859375 -29.734375 C 27.367188 -27.210938 26.898438 -24.738281 26.453125 -22.3125 C 26.015625 -19.894531 25.644531 -17.867188 25.34375 -16.234375 C 25.050781 -14.597656 24.90625 -13.78125 24.90625 -13.78125 L 24.015625 -7.109375 C 23.722656 -3.753906 22.585938 -1.335938 20.609375 0.140625 C 18.628906 1.628906 16.453125 2.222656 14.078125 1.921875 C 11.710938 1.628906 9.710938 0.492188 8.078125 -1.484375 C 6.453125 -3.460938 5.882812 -6.179688 6.375 -9.640625 C 6.96875 -13.984375 7.660156 -18.328125 8.453125 -22.671875 C 9.242188 -27.023438 10.179688 -31.328125 11.265625 -35.578125 C 10.578125 -35.484375 9.882812 -35.410156 9.1875 -35.359375 C 8.5 -35.304688 7.859375 -35.28125 7.265625 -35.28125 C 7.460938 -35.78125 7.507812 -36.226562 7.40625 -36.625 C 5.039062 -37.21875 3.3125 -38.5 2.21875 -40.46875 C 1.132812 -42.445312 0.835938 -44.644531 1.328125 -47.0625 C 1.828125 -49.488281 3.210938 -51.710938 5.484375 -53.734375 C 7.753906 -55.765625 11.113281 -57.128906 15.5625 -57.828125 C 16.65625 -62.765625 17.84375 -67.628906 19.125 -72.421875 C 20.40625 -77.222656 21.988281 -81.894531 23.875 -86.4375 C 24.757812 -88.414062 25.742188 -90.566406 26.828125 -92.890625 C 27.921875 -95.210938 29.28125 -97.238281 30.90625 -98.96875 C 32.539062 -100.695312 34.59375 -101.5625 37.0625 -101.5625 C 38.351562 -101.65625 39.640625 -101.304688 40.921875 -100.515625 C 42.203125 -99.734375 43.140625 -98.75 43.734375 -97.5625 C 45.910156 -97.457031 47.710938 -96.6875 49.140625 -95.25 C 50.578125 -93.820312 51.394531 -91.921875 51.59375 -89.546875 C 51.789062 -86.585938 52.035156 -83.597656 52.328125 -80.578125 C 52.628906 -77.566406 52.929688 -74.628906 53.234375 -71.765625 C 53.328125 -71.660156 53.425781 -71.609375 53.53125 -71.609375 C 53.625 -74.179688 53.742188 -76.726562 53.890625 -79.25 C 54.035156 -81.769531 54.257812 -84.265625 54.5625 -86.734375 C 54.5625 -87.128906 54.632812 -86.238281 54.78125 -84.0625 C 54.925781 -81.894531 55.097656 -79.101562 55.296875 -75.6875 C 55.492188 -72.28125 55.691406 -68.867188 55.890625 -65.453125 C 56.085938 -62.046875 56.335938 -59.207031 56.640625 -56.9375 C 59.503906 -56.632812 61.726562 -55.664062 63.3125 -54.03125 C 64.894531 -52.40625 65.882812 -50.53125 66.28125 -48.40625 C 66.675781 -46.28125 66.476562 -44.179688 65.6875 -42.109375 C 64.894531 -40.035156 63.457031 -38.351562 61.375 -37.0625 C 62.363281 -32.71875 63.398438 -27.800781 64.484375 -22.3125 C 65.578125 -16.820312 66.421875 -11.851562 67.015625 -7.40625 C 67.410156 -4.050781 67.140625 -1.507812 66.203125 0.21875 C 65.265625 1.945312 64.03125 2.910156 62.5 3.109375 C 60.96875 3.304688 59.429688 2.765625 57.890625 1.484375 C 56.359375 0.203125 55.148438 -1.773438 54.265625 -4.453125 Z M 32.328125 -55.453125 C 33.410156 -55.648438 34.816406 -55.769531 36.546875 -55.8125 C 38.273438 -55.863281 39.632812 -55.941406 40.625 -56.046875 C 40.425781 -57.328125 40.203125 -59.15625 39.953125 -61.53125 C 39.710938 -63.90625 39.414062 -66.453125 39.0625 -69.171875 C 38.71875 -71.890625 38.300781 -74.382812 37.8125 -76.65625 C 36.625 -72.5 35.582031 -68.789062 34.6875 -65.53125 C 33.800781 -62.269531 33.015625 -58.910156 32.328125 -55.453125 Z M 32.328125 -55.453125 "/></g></g></g><g fill="#fcfbfc" fill-opacity="1"><g transform="translate(674.536361, 132.523485)"><g><path d="M 71.015625 -53.828125 C 71.117188 -52.535156 71.289062 -51.320312 71.53125 -50.1875 C 71.78125 -49.050781 72.003906 -47.84375 72.203125 -46.5625 C 72.503906 -45.570312 72.40625 -44.601562 71.90625 -43.65625 C 71.414062 -42.71875 70.625 -42.101562 69.53125 -41.8125 C 67.164062 -41.21875 65.238281 -41.710938 63.75 -43.296875 C 62.269531 -44.878906 61.160156 -46.953125 60.421875 -49.515625 C 59.679688 -52.085938 59.160156 -54.507812 58.859375 -56.78125 C 58.765625 -56.78125 58.71875 -56.804688 58.71875 -56.859375 C 58.71875 -56.910156 58.664062 -56.9375 58.5625 -56.9375 C 56.382812 -60.09375 53.738281 -62.859375 50.625 -65.234375 C 47.519531 -67.609375 44.1875 -69.585938 40.625 -71.171875 C 36.863281 -72.847656 33.007812 -74.128906 29.0625 -75.015625 L 35.140625 -69.234375 C 37.515625 -66.960938 39.882812 -64.640625 42.25 -62.265625 C 44.625 -59.898438 46.898438 -57.476562 49.078125 -55 C 51.253906 -52.726562 53.425781 -50.429688 55.59375 -48.109375 C 57.769531 -45.785156 59.796875 -43.390625 61.671875 -40.921875 C 63.054688 -39.242188 64.242188 -37.460938 65.234375 -35.578125 C 66.222656 -33.703125 66.914062 -31.773438 67.3125 -29.796875 C 68.101562 -27.921875 68.695312 -26.019531 69.09375 -24.09375 C 69.488281 -22.164062 69.535156 -20.210938 69.234375 -18.234375 C 69.140625 -15.066406 68.101562 -12.222656 66.125 -9.703125 C 64.144531 -7.191406 61.671875 -5.191406 58.703125 -3.703125 C 55.742188 -2.222656 52.679688 -1.382812 49.515625 -1.1875 L 49.078125 -1.1875 C 46.609375 -0.789062 44.015625 -0.710938 41.296875 -0.953125 C 38.578125 -1.203125 36.03125 -1.675781 33.65625 -2.375 C 30.394531 -3.0625 27.332031 -4.347656 24.46875 -6.234375 C 24.164062 -4.941406 23.742188 -3.726562 23.203125 -2.59375 C 22.660156 -1.457031 21.894531 -0.492188 20.90625 0.296875 C 20.21875 0.984375 19.351562 1.328125 18.3125 1.328125 C 17.269531 1.328125 16.351562 0.984375 15.5625 0.296875 C 14.769531 -0.492188 14.03125 -1.503906 13.34375 -2.734375 C 12.65625 -3.972656 12.210938 -5.238281 12.015625 -6.53125 C 11.617188 -7.019531 11.296875 -7.609375 11.046875 -8.296875 C 10.796875 -8.992188 10.570312 -9.6875 10.375 -10.375 C 9.976562 -14.53125 9.359375 -18.679688 8.515625 -22.828125 C 7.679688 -26.984375 6.722656 -31.085938 5.640625 -35.140625 C 5.046875 -37.410156 4.570312 -39.734375 4.21875 -42.109375 C 3.875 -44.484375 3.554688 -46.851562 3.265625 -49.21875 C 2.960938 -51.300781 2.6875 -53.453125 2.4375 -55.671875 C 2.195312 -57.898438 2.273438 -60.097656 2.671875 -62.265625 C 2.960938 -63.648438 3.628906 -64.9375 4.671875 -66.125 C 5.710938 -67.3125 6.972656 -68.003906 8.453125 -68.203125 C 10.234375 -68.398438 11.8125 -68.148438 13.1875 -67.453125 C 14.570312 -66.765625 15.5625 -65.53125 16.15625 -63.75 C 17.738281 -58.90625 18.875 -53.910156 19.5625 -48.765625 C 20.257812 -43.628906 21.445312 -38.59375 23.125 -33.65625 C 23.820312 -31.875 24.640625 -30.09375 25.578125 -28.3125 C 26.515625 -26.539062 27.625 -24.960938 28.90625 -23.578125 C 29.695312 -22.878906 30.488281 -22.132812 31.28125 -21.34375 C 32.070312 -20.5625 32.910156 -19.820312 33.796875 -19.125 C 34.691406 -18.832031 35.582031 -18.609375 36.46875 -18.453125 C 37.363281 -18.304688 38.253906 -18.1875 39.140625 -18.09375 C 42.203125 -17.789062 45.363281 -17.789062 48.625 -18.09375 C 49.613281 -18.1875 50.726562 -18.359375 51.96875 -18.609375 C 53.207031 -18.859375 54.117188 -19.425781 54.703125 -20.3125 C 55.003906 -20.601562 55.15625 -21.046875 55.15625 -21.640625 C 55.550781 -22.429688 55.523438 -23.421875 55.078125 -24.609375 C 54.628906 -25.796875 54.257812 -26.6875 53.96875 -27.28125 C 53.875 -27.675781 53.726562 -28.070312 53.53125 -28.46875 C 53.332031 -28.863281 53.132812 -29.257812 52.9375 -29.65625 C 52.238281 -30.539062 51.539062 -31.425781 50.84375 -32.3125 C 50.15625 -33.207031 49.414062 -34.097656 48.625 -34.984375 C 46.351562 -37.753906 44.03125 -40.472656 41.65625 -43.140625 C 39.289062 -45.816406 36.820312 -48.4375 34.25 -51 C 33.257812 -52.09375 32.269531 -53.179688 31.28125 -54.265625 C 30.289062 -55.347656 29.253906 -56.382812 28.171875 -57.375 L 25.953125 -59.15625 C 22.484375 -62.019531 19.164062 -65.007812 16 -68.125 C 12.84375 -71.238281 9.878906 -74.578125 7.109375 -78.140625 C 5.828125 -80.015625 4.664062 -82.015625 3.625 -84.140625 C 2.59375 -86.265625 2.375 -88.5625 2.96875 -91.03125 C 3.5625 -93.5 4.84375 -95.425781 6.8125 -96.8125 C 8.789062 -98.195312 11.015625 -98.789062 13.484375 -98.59375 C 15.171875 -98.5 16.800781 -98.226562 18.375 -97.78125 C 19.957031 -97.332031 21.539062 -96.863281 23.125 -96.375 C 23.820312 -96.570312 24.566406 -96.519531 25.359375 -96.21875 C 29.410156 -95.03125 33.265625 -93.597656 36.921875 -91.921875 C 40.578125 -90.242188 44.132812 -88.269531 47.59375 -86 C 49.269531 -85.007812 50.898438 -83.941406 52.484375 -82.796875 C 54.066406 -81.660156 55.597656 -80.40625 57.078125 -79.03125 L 57.828125 -78.28125 C 57.828125 -79.570312 57.828125 -80.832031 57.828125 -82.0625 C 57.828125 -83.300781 57.773438 -84.5625 57.671875 -85.84375 C 57.671875 -87.820312 58.410156 -89.523438 59.890625 -90.953125 C 61.378906 -92.390625 63.0625 -93.109375 64.9375 -93.109375 C 67.113281 -93.109375 68.816406 -92.390625 70.046875 -90.953125 C 71.285156 -89.523438 72.003906 -87.820312 72.203125 -85.84375 C 72.703125 -82.382812 72.703125 -78.847656 72.203125 -75.234375 C 71.710938 -71.628906 71.316406 -68.097656 71.015625 -64.640625 C 70.921875 -60.984375 70.921875 -57.378906 71.015625 -53.828125 Z M 71.015625 -53.828125 "/></g></g></g><g fill="#fcfbfc" fill-opacity="1"><g transform="translate(750.002254, 132.523485)"><g><path d="M 75.609375 -5.78125 C 75.515625 -5.6875 75.441406 -5.738281 75.390625 -5.9375 C 75.335938 -6.132812 75.363281 -6.28125 75.46875 -6.375 C 76.65625 -6.863281 77.347656 -7.75 77.546875 -9.03125 C 77.742188 -10.320312 77.644531 -11.757812 77.25 -13.34375 C 76.851562 -14.925781 76.378906 -16.429688 75.828125 -17.859375 C 75.285156 -19.296875 74.867188 -20.359375 74.578125 -21.046875 C 72.398438 -27.078125 69.679688 -32.738281 66.421875 -38.03125 C 63.160156 -43.320312 59.351562 -48.335938 55 -53.078125 C 56.09375 -51.691406 57.503906 -49.640625 59.234375 -46.921875 C 60.960938 -44.203125 62.765625 -41.1875 64.640625 -37.875 C 66.515625 -34.570312 68.289062 -31.210938 69.96875 -27.796875 C 71.65625 -24.390625 73.066406 -21.226562 74.203125 -18.3125 C 75.335938 -15.394531 75.957031 -13.097656 76.0625 -11.421875 C 76.257812 -9.441406 75.710938 -7.632812 74.421875 -6 C 73.140625 -4.375 71.363281 -3.5625 69.09375 -3.5625 C 65.925781 -3.5625 63.703125 -4.941406 62.421875 -7.703125 C 61.722656 -8.992188 61.375 -10.378906 61.375 -11.859375 C 58.613281 -17.398438 55.351562 -22.6875 51.59375 -27.71875 C 47.84375 -32.757812 43.941406 -37.503906 39.890625 -41.953125 C 38.109375 -43.929688 36.300781 -45.882812 34.46875 -47.8125 C 32.644531 -49.738281 30.644531 -51.492188 28.46875 -53.078125 L 26.09375 -52.1875 C 25.40625 -51.894531 24.765625 -51.625 24.171875 -51.375 C 23.578125 -51.125 23.03125 -50.898438 22.53125 -50.703125 C 23.320312 -42.398438 24.210938 -34.148438 25.203125 -25.953125 C 25.398438 -24.367188 25.671875 -22.757812 26.015625 -21.125 C 26.367188 -19.5 26.691406 -17.84375 26.984375 -16.15625 C 27.378906 -14.769531 27.847656 -13.257812 28.390625 -11.625 C 28.929688 -10 29.351562 -8.347656 29.65625 -6.671875 C 29.851562 -6.078125 29.875 -5.457031 29.71875 -4.8125 C 29.570312 -4.175781 29.253906 -3.609375 28.765625 -3.109375 C 25.003906 0.046875 20.953125 0.835938 16.609375 -0.734375 C 14.921875 -0.535156 13.285156 -0.90625 11.703125 -1.84375 C 10.128906 -2.789062 8.945312 -4.054688 8.15625 -5.640625 C 7.257812 -7.710938 6.710938 -9.859375 6.515625 -12.078125 C 6.328125 -14.304688 6.132812 -16.507812 5.9375 -18.6875 C 5.34375 -23.726562 4.769531 -28.765625 4.21875 -33.796875 C 3.675781 -38.835938 3.207031 -43.878906 2.8125 -48.921875 C 2.414062 -53.960938 2.09375 -59.003906 1.84375 -64.046875 C 1.601562 -69.085938 1.382812 -74.179688 1.1875 -79.328125 C 1.1875 -80.703125 1.160156 -82.054688 1.109375 -83.390625 C 1.054688 -84.734375 1.03125 -86.046875 1.03125 -87.328125 C 0.9375 -88.710938 1.0625 -90.117188 1.40625 -91.546875 C 1.75 -92.984375 2.710938 -93.898438 4.296875 -94.296875 C 4.398438 -94.585938 4.523438 -94.859375 4.671875 -95.109375 C 4.816406 -95.359375 4.941406 -95.628906 5.046875 -95.921875 C 6.035156 -97.703125 7.394531 -98.816406 9.125 -99.265625 C 10.851562 -99.710938 12.554688 -99.585938 14.234375 -98.890625 C 15.910156 -98.203125 17.191406 -97.09375 18.078125 -95.5625 C 18.972656 -94.03125 19.078125 -92.273438 18.390625 -90.296875 C 17.992188 -88.804688 17.769531 -87.195312 17.71875 -85.46875 C 17.664062 -83.738281 17.59375 -82.035156 17.5 -80.359375 L 17.046875 -67.015625 C 17.546875 -67.503906 17.941406 -67.800781 18.234375 -67.90625 C 18.535156 -71.070312 18.882812 -74.234375 19.28125 -77.390625 C 19.675781 -80.554688 20.117188 -83.671875 20.609375 -86.734375 C 20.609375 -86.835938 20.628906 -86.863281 20.671875 -86.8125 C 20.722656 -86.757812 20.75 -86.734375 20.75 -86.734375 L 20.75 -85.703125 C 20.851562 -82.929688 20.953125 -80.210938 21.046875 -77.546875 C 21.148438 -74.878906 21.25 -72.160156 21.34375 -69.390625 C 27.476562 -72.054688 33.976562 -75.066406 40.84375 -78.421875 C 47.71875 -81.785156 54.019531 -85.148438 59.75 -88.515625 C 60.9375 -89.203125 62.296875 -90.015625 63.828125 -90.953125 C 65.359375 -91.898438 66.863281 -92.125 68.34375 -91.625 C 69.53125 -91.332031 70.421875 -90.691406 71.015625 -89.703125 C 71.609375 -88.710938 71.90625 -87.625 71.90625 -86.4375 L 72.359375 -86.890625 C 73.148438 -87.472656 73.914062 -87.46875 74.65625 -86.875 C 75.394531 -86.289062 75.515625 -85.550781 75.015625 -84.65625 C 72.453125 -79.8125 68.921875 -75.757812 64.421875 -72.5 C 59.921875 -69.238281 55.300781 -66.273438 50.5625 -63.609375 L 46.703125 -61.53125 C 47.097656 -61.226562 47.441406 -60.929688 47.734375 -60.640625 C 48.035156 -60.347656 48.382812 -60.050781 48.78125 -59.75 C 48.675781 -60.25 48.921875 -60.691406 49.515625 -61.078125 C 50.109375 -61.472656 50.601562 -61.425781 51 -60.9375 C 55.550781 -56.6875 59.601562 -52.066406 63.15625 -47.078125 C 66.71875 -42.085938 69.734375 -36.773438 72.203125 -31.140625 C 73.484375 -28.367188 74.617188 -25.570312 75.609375 -22.75 C 76.597656 -19.9375 77.441406 -17.097656 78.140625 -14.234375 C 78.429688 -12.753906 78.523438 -11.097656 78.421875 -9.265625 C 78.328125 -7.441406 77.390625 -6.28125 75.609375 -5.78125 Z M 75.609375 -5.78125 "/></g></g></g></svg>